<svg width="296" height="296" viewBox="0 0 296 296" fill="none" xmlns="http://www.w3.org/2000/svg">
<path d="M238.5 129.5C238.5 179.722 197.722 220.5 147.5 220.5C97.2777 220.5 56.5 179.722 56.5 129.5C56.5 79.2777 97.2777 38.5 147.5 38.5C197.722 38.5 238.5 79.2777 238.5 129.5Z" fill="#457B2C" stroke="black" stroke-width="3"/>
<path d="M100.39 159.197C99.8163 158.18 101.195 156.293 103.909 154.507C112.285 149.203 120.481 147.366 137.561 145.327C148.948 143.967 160.506 144.309 172.235 146.349C175.176 136.225 176.656 125.86 176.67 115.246C175.768 103.915 178.201 94.4841 183.964 86.9454C191.322 80.4611 197.612 77.3161 202.829 77.5104C207.75 76.2755 205.377 75.4985 210.987 76.4929C213.231 78.5556 215.321 81.4648 213.027 85.1601C211.496 87.6253 208.097 87.283 202.829 84.138C197.432 83.8836 192.08 87.6253 186.766 95.3583C183.496 102.583 182.308 111.93 183.196 123.404C182.729 136.234 181.882 144.221 180.647 147.366C184.856 150.003 187.659 155.099 189.06 162.666C188.935 168.271 187.659 173.373 185.235 177.961C185.43 184.08 185.43 185.93 180.647 187.141C175.87 188.353 170.195 187.202 166.116 182.808C163.396 179.876 162.804 175.454 164.33 169.548C149.035 166.278 134.504 166.024 120.735 168.785C123.455 170.695 125.749 173.077 127.617 175.921C129.573 181.064 128.723 184.801 125.069 187.141C119.588 190.134 114.524 187.165 109.774 182.808C107.915 180.875 103.932 173.188 109.774 168.785C125.207 160.659 142.935 158.337 160.765 162.157C172.063 164.576 179.117 167.041 181.924 169.548C178.395 160.839 170.491 155.312 158.212 152.977C145.932 150.641 128.598 152.509 106.203 158.587C102.711 159.674 100.774 159.877 100.39 159.197Z" fill="white"/>
<path d="M99.7608 129.875C93.2626 123.525 90.2009 116.744 90.5848 109.529C92.1665 101.704 100.732 97.421 116.281 96.681C131.835 95.941 154.169 98.1333 183.284 103.258C149.271 100.783 125.055 100.987 110.625 103.868C106.569 106.051 99.7608 106.546 100.986 116.259C102.314 123.145 108.585 133.801 119.801 148.231C112.942 142.344 106.264 136.225 99.7608 129.875Z" fill="white"/>
<path d="M112.799 101.94C119.556 107.036 127.969 122.206 138.037 147.445C126.849 129.028 115.634 114.751 104.386 104.617C104.335 101.079 102.665 94.2899 112.799 101.94Z" fill="white"/>
<path d="M152.638 99.8352C156.144 106.652 158.951 118.247 161.051 134.62C158.248 121.943 153.277 110.602 146.14 100.598C148.814 98.7854 149.674 99.1692 152.638 99.8352Z" fill="white"/>
<path d="M112.484 140.373C128.482 130.208 148.305 125.874 171.952 127.368C154.456 120.231 133.421 122.974 108.853 135.591C109.089 137.506 110.666 138.223 112.484 140.373Z" fill="white"/>
<path d="M100.413 120.675C127.885 113.063 153.378 111.148 176.896 114.94C151.149 114.367 126.544 118.127 103.091 126.221C100.413 125.555 97.4482 123.881 100.413 120.675Z" fill="white"/>
<path d="M131.225 99.2617C141.423 111.342 146.968 125.042 147.861 140.373C140.179 120.454 132.02 107.263 123.385 100.793C125.92 97.014 126.826 98.161 131.225 99.2617Z" fill="white"/>
<g filter="url(#filter0_d)">
<path d="M93.2906 256.36C91.2986 256.36 89.5706 256.048 88.1066 255.424C86.6666 254.8 85.5626 253.984 84.7946 252.976C84.0266 251.944 83.6186 250.84 83.5706 249.664C83.5706 249.472 83.6426 249.304 83.7866 249.16C83.9546 248.992 84.1466 248.908 84.3626 248.908H86.1986C86.6546 248.908 86.9666 249.148 87.1346 249.628C87.3506 250.636 87.9626 251.5 88.9706 252.22C90.0026 252.94 91.4426 253.3 93.2906 253.3C95.2826 253.3 96.7826 252.952 97.7906 252.256C98.7986 251.536 99.3026 250.54 99.3026 249.268C99.3026 248.452 99.0506 247.792 98.5466 247.288C98.0666 246.784 97.3466 246.34 96.3866 245.956C95.4266 245.572 93.9866 245.092 92.0666 244.516C90.1946 243.988 88.7066 243.424 87.6026 242.824C86.4986 242.224 85.6706 241.48 85.1186 240.592C84.5666 239.704 84.2906 238.588 84.2906 237.244C84.2906 235.948 84.6386 234.784 85.3346 233.752C86.0546 232.72 87.0746 231.916 88.3946 231.34C89.7146 230.74 91.2866 230.44 93.1106 230.44C94.9826 230.44 96.5906 230.776 97.9346 231.448C99.2786 232.096 100.299 232.924 100.995 233.932C101.691 234.94 102.063 235.948 102.111 236.956C102.111 237.148 102.039 237.316 101.895 237.46C101.775 237.604 101.595 237.676 101.355 237.676H99.4466C98.9426 237.676 98.6306 237.448 98.5106 236.992C98.3666 235.984 97.8026 235.156 96.8186 234.508C95.8346 233.836 94.5986 233.5 93.1106 233.5C91.4786 233.5 90.1946 233.812 89.2586 234.436C88.3226 235.06 87.8546 235.984 87.8546 237.208C87.8546 238.024 88.0706 238.696 88.5026 239.224C88.9586 239.752 89.6426 240.22 90.5546 240.628C91.4666 241.012 92.7986 241.456 94.5506 241.96C96.5906 242.512 98.1986 243.088 99.3746 243.688C100.551 244.264 101.427 244.996 102.003 245.884C102.579 246.748 102.867 247.852 102.867 249.196C102.867 251.428 102.003 253.18 100.275 254.452C98.5466 255.724 96.2186 256.36 93.2906 256.36ZM107.981 256C107.741 256 107.537 255.928 107.369 255.784C107.225 255.616 107.153 255.412 107.153 255.172V231.268C107.153 231.028 107.225 230.836 107.369 230.692C107.537 230.524 107.741 230.44 107.981 230.44H109.781C110.021 230.44 110.213 230.524 110.357 230.692C110.525 230.836 110.609 231.028 110.609 231.268V239.656C111.305 238.768 112.121 238.096 113.057 237.64C113.993 237.16 115.157 236.92 116.549 236.92C118.853 236.92 120.641 237.664 121.913 239.152C123.209 240.616 123.857 242.572 123.857 245.02V255.172C123.857 255.412 123.773 255.616 123.605 255.784C123.461 255.928 123.269 256 123.029 256H121.229C120.989 256 120.785 255.928 120.617 255.784C120.473 255.616 120.401 255.412 120.401 255.172V245.2C120.401 243.496 119.981 242.176 119.141 241.24C118.325 240.304 117.137 239.836 115.577 239.836C114.065 239.836 112.853 240.316 111.941 241.276C111.053 242.212 110.609 243.52 110.609 245.2V255.172C110.609 255.412 110.525 255.616 110.357 255.784C110.213 255.928 110.021 256 109.781 256H107.981ZM136.723 256.36C134.083 256.36 132.031 255.616 130.567 254.128C129.127 252.64 128.359 250.66 128.263 248.188L128.227 246.64L128.263 245.092C128.359 242.644 129.139 240.676 130.603 239.188C132.067 237.676 134.107 236.92 136.723 236.92C139.339 236.92 141.379 237.676 142.843 239.188C144.307 240.676 145.087 242.644 145.183 245.092C145.207 245.356 145.219 245.872 145.219 246.64C145.219 247.408 145.207 247.924 145.183 248.188C145.087 250.66 144.307 252.64 142.843 254.128C141.403 255.616 139.363 256.36 136.723 256.36ZM136.723 253.588C138.235 253.588 139.423 253.108 140.287 252.148C141.175 251.188 141.655 249.808 141.727 248.008C141.751 247.768 141.763 247.312 141.763 246.64C141.763 245.968 141.751 245.512 141.727 245.272C141.655 243.472 141.175 242.092 140.287 241.132C139.423 240.172 138.235 239.692 136.723 239.692C135.211 239.692 134.011 240.172 133.123 241.132C132.235 242.092 131.767 243.472 131.719 245.272L131.683 246.64L131.719 248.008C131.767 249.808 132.235 251.188 133.123 252.148C134.011 253.108 135.211 253.588 136.723 253.588ZM150.591 262.84C150.351 262.84 150.147 262.756 149.979 262.588C149.835 262.444 149.763 262.252 149.763 262.012V238.108C149.763 237.868 149.835 237.676 149.979 237.532C150.147 237.364 150.351 237.28 150.591 237.28H152.247C152.487 237.28 152.679 237.364 152.823 237.532C152.991 237.676 153.075 237.868 153.075 238.108V239.692C154.419 237.844 156.387 236.92 158.979 236.92C161.499 236.92 163.383 237.712 164.631 239.296C165.903 240.88 166.587 242.92 166.683 245.416C166.707 245.68 166.719 246.088 166.719 246.64C166.719 247.192 166.707 247.6 166.683 247.864C166.587 250.336 165.903 252.376 164.631 253.984C163.359 255.568 161.475 256.36 158.979 256.36C156.483 256.36 154.539 255.46 153.147 253.66V262.012C153.147 262.252 153.075 262.444 152.931 262.588C152.787 262.756 152.595 262.84 152.354 262.84H150.591ZM158.223 253.444C159.927 253.444 161.163 252.916 161.931 251.86C162.723 250.804 163.155 249.412 163.227 247.684C163.251 247.444 163.263 247.096 163.263 246.64C163.263 242.104 161.583 239.836 158.223 239.836C156.567 239.836 155.319 240.388 154.479 241.492C153.663 242.572 153.219 243.868 153.147 245.38L153.111 246.748L153.147 248.152C153.195 249.568 153.651 250.804 154.515 251.86C155.379 252.916 156.615 253.444 158.223 253.444ZM171.712 233.788C171.472 233.788 171.268 233.716 171.1 233.572C170.956 233.404 170.884 233.2 170.884 232.96V231.016C170.884 230.776 170.956 230.572 171.1 230.404C171.268 230.236 171.472 230.152 171.712 230.152H173.98C174.22 230.152 174.424 230.236 174.592 230.404C174.76 230.572 174.844 230.776 174.844 231.016V232.96C174.844 233.2 174.76 233.404 174.592 233.572C174.424 233.716 174.22 233.788 173.98 233.788H171.712ZM172 256C171.76 256 171.556 255.928 171.388 255.784C171.244 255.616 171.172 255.412 171.172 255.172V238.108C171.172 237.868 171.244 237.676 171.388 237.532C171.556 237.364 171.76 237.28 172 237.28H173.728C173.968 237.28 174.16 237.364 174.304 237.532C174.472 237.676 174.556 237.868 174.556 238.108V255.172C174.556 255.412 174.472 255.616 174.304 255.784C174.16 255.928 173.968 256 173.728 256H172ZM182.591 256C182.351 256 182.147 255.928 181.979 255.784C181.835 255.616 181.763 255.412 181.763 255.172V240.16H178.703C178.463 240.16 178.259 240.088 178.091 239.944C177.947 239.776 177.875 239.572 177.875 239.332V238.108C177.875 237.868 177.947 237.676 178.091 237.532C178.259 237.364 178.463 237.28 178.703 237.28H181.763V235.48C181.763 231.4 183.827 229.36 187.955 229.36H190.115C190.355 229.36 190.547 229.444 190.691 229.612C190.859 229.756 190.943 229.948 190.943 230.188V231.412C190.943 231.652 190.859 231.856 190.691 232.024C190.547 232.168 190.355 232.24 190.115 232.24H188.027C186.947 232.24 186.191 232.528 185.759 233.104C185.327 233.656 185.111 234.508 185.111 235.66V237.28H189.755C189.995 237.28 190.187 237.364 190.331 237.532C190.499 237.676 190.583 237.868 190.583 238.108V239.332C190.583 239.572 190.499 239.776 190.331 239.944C190.187 240.088 189.995 240.16 189.755 240.16H185.111V255.172C185.111 255.412 185.027 255.616 184.859 255.784C184.715 255.928 184.523 256 184.283 256H182.591ZM197.018 262.84C196.826 262.84 196.658 262.768 196.514 262.624C196.37 262.48 196.298 262.312 196.298 262.12C196.298 261.952 196.358 261.736 196.478 261.472L199.25 254.884L192.374 238.648C192.254 238.336 192.194 238.132 192.194 238.036C192.194 237.82 192.266 237.64 192.41 237.496C192.554 237.352 192.734 237.28 192.95 237.28H194.714C195.098 237.28 195.386 237.484 195.578 237.892L201.05 250.996L206.666 237.892C206.858 237.484 207.158 237.28 207.566 237.28H209.258C209.474 237.28 209.654 237.352 209.798 237.496C209.942 237.64 210.014 237.808 210.014 238C210.014 238.072 209.954 238.288 209.834 238.648L199.61 262.228C199.418 262.636 199.118 262.84 198.71 262.84H197.018Z" fill="black"/>
<path d="M88.1066 255.424L87.709 256.342L87.7145 256.344L88.1066 255.424ZM84.7946 252.976L83.9923 253.573L83.9992 253.582L84.7946 252.976ZM83.5706 249.664H82.5706V249.684L82.5714 249.705L83.5706 249.664ZM83.7866 249.16L83.0795 248.453H83.0795L83.7866 249.16ZM87.1346 249.628L88.1124 249.418L88.0992 249.357L88.0785 249.298L87.1346 249.628ZM88.9706 252.22L88.3893 253.034L88.3984 253.04L88.9706 252.22ZM97.7906 252.256L98.3588 253.079L98.3653 253.074L98.3718 253.07L97.7906 252.256ZM98.5466 247.288L97.8225 247.978L97.8309 247.986L97.8395 247.995L98.5466 247.288ZM96.3866 245.956L96.758 245.028H96.758L96.3866 245.956ZM92.0666 244.516L92.3539 243.558L92.346 243.556L92.3381 243.554L92.0666 244.516ZM87.6026 242.824L88.0801 241.945L87.6026 242.824ZM85.1186 240.592L84.2693 241.12H84.2693L85.1186 240.592ZM85.3346 233.752L84.5145 233.18L84.5099 233.186L84.5055 233.193L85.3346 233.752ZM88.3946 231.34L88.7945 232.257L88.8015 232.254L88.8084 232.25L88.3946 231.34ZM97.9346 231.448L97.4874 232.342L97.4938 232.346L97.5003 232.349L97.9346 231.448ZM100.995 233.932L101.817 233.364V233.364L100.995 233.932ZM102.111 236.956H103.111V236.932L103.109 236.908L102.111 236.956ZM101.895 237.46L101.187 236.753L101.155 236.785L101.126 236.82L101.895 237.46ZM98.5106 236.992L97.5206 237.133L97.5288 237.191L97.5435 237.246L98.5106 236.992ZM96.8186 234.508L96.2546 235.334L96.2616 235.339L96.2686 235.343L96.8186 234.508ZM89.2586 234.436L88.7039 233.604L88.7039 233.604L89.2586 234.436ZM88.5026 239.224L87.7286 239.857L87.7371 239.868L87.7458 239.878L88.5026 239.224ZM90.5546 240.628L90.1462 241.541L90.1563 241.545L90.1665 241.55L90.5546 240.628ZM94.5506 241.96L94.2741 242.921L94.2817 242.923L94.2894 242.925L94.5506 241.96ZM99.3746 243.688L98.9201 244.579L98.9274 244.582L98.9347 244.586L99.3746 243.688ZM102.003 245.884L101.164 246.428L101.171 246.439L102.003 245.884ZM100.275 254.452L100.867 255.257L100.275 254.452ZM93.2906 255.36C91.4006 255.36 89.8117 255.064 88.4987 254.504L87.7145 256.344C89.3294 257.032 91.1966 257.36 93.2906 257.36V255.36ZM88.5042 254.506C87.1843 253.934 86.2323 253.213 85.59 252.37L83.9992 253.582C84.8929 254.755 86.1489 255.666 87.709 256.342L88.5042 254.506ZM85.5968 252.379C84.9372 251.493 84.6088 250.58 84.5698 249.623L82.5714 249.705C82.6284 251.1 83.1159 252.395 83.9924 253.573L85.5968 252.379ZM84.5706 249.664C84.5706 249.696 84.5638 249.741 84.5437 249.788C84.5242 249.833 84.5014 249.859 84.4937 249.867L83.0795 248.453C82.7606 248.772 82.5706 249.189 82.5706 249.664H84.5706ZM84.4937 249.867C84.5012 249.86 84.4899 249.873 84.4574 249.887C84.4231 249.902 84.3882 249.908 84.3626 249.908V247.908C83.8536 247.908 83.4144 248.118 83.0795 248.453L84.4937 249.867ZM84.3626 249.908H86.1986V247.908H84.3626V249.908ZM86.1986 249.908C86.2247 249.908 86.2278 249.911 86.2153 249.907C86.2093 249.906 86.201 249.902 86.1914 249.897C86.1818 249.893 86.1728 249.887 86.1649 249.881C86.1481 249.868 86.1442 249.86 86.1495 249.868C86.1557 249.877 86.1717 249.904 86.1907 249.958L88.0785 249.298C87.9488 248.927 87.7333 248.564 87.3843 248.295C87.0267 248.02 86.6107 247.908 86.1986 247.908V249.908ZM86.1568 249.838C86.4352 251.137 87.2216 252.2 88.3894 253.034L89.5518 251.406C88.7036 250.8 88.266 250.135 88.1124 249.418L86.1568 249.838ZM88.3984 253.04C89.66 253.92 91.3291 254.3 93.2906 254.3V252.3C91.5561 252.3 90.3451 251.96 89.5428 251.4L88.3984 253.04ZM93.2906 254.3C95.3697 254.3 97.1087 253.942 98.3588 253.079L97.2224 251.433C96.4565 251.962 95.1954 252.3 93.2906 252.3V254.3ZM98.3718 253.07C99.6509 252.156 100.303 250.853 100.303 249.268H98.3026C98.3026 250.227 97.9463 250.916 97.2094 251.442L98.3718 253.07ZM100.303 249.268C100.303 248.228 99.9728 247.3 99.2537 246.581L97.8395 247.995C98.1284 248.284 98.3026 248.676 98.3026 249.268H100.303ZM99.2707 246.598C98.6555 245.952 97.7922 245.441 96.758 245.028L96.0152 246.884C96.901 247.239 97.4777 247.616 97.8225 247.978L99.2707 246.598ZM96.758 245.028C95.7556 244.627 94.2813 244.136 92.3539 243.558L91.7792 245.474C93.6919 246.048 95.0976 246.517 96.0152 246.884L96.758 245.028ZM92.3381 243.554C90.5032 243.036 89.0934 242.496 88.0801 241.945L87.1251 243.703C88.3197 244.352 89.886 244.94 91.7951 245.478L92.3381 243.554ZM88.0801 241.945C87.0976 241.411 86.4116 240.778 85.9679 240.064L84.2693 241.12C84.9296 242.182 85.8996 243.037 87.1251 243.703L88.0801 241.945ZM85.9679 240.064C85.5388 239.374 85.2906 238.454 85.2906 237.244H83.2906C83.2906 238.722 83.5943 240.034 84.2693 241.12L85.9679 240.064ZM85.2906 237.244C85.2906 236.139 85.5838 235.171 86.1637 234.311L84.5055 233.193C83.6934 234.397 83.2906 235.757 83.2906 237.244H85.2906ZM86.1547 234.324C86.7546 233.464 87.6187 232.77 88.7945 232.257L87.9946 230.423C86.5305 231.062 85.3546 231.976 84.5145 233.18L86.1547 234.324ZM88.8084 232.25C89.9695 231.723 91.3937 231.44 93.1106 231.44V229.44C91.1795 229.44 89.4597 229.757 87.9808 230.43L88.8084 232.25ZM93.1106 231.44C94.8647 231.44 96.3122 231.755 97.4874 232.342L98.3818 230.554C96.869 229.797 95.1005 229.44 93.1106 229.44V231.44ZM97.5003 232.349C98.722 232.938 99.5936 233.663 100.172 234.5L101.817 233.364C101.004 232.185 99.8352 231.254 98.3689 230.547L97.5003 232.349ZM100.172 234.5C100.784 235.387 101.074 236.219 101.112 237.004L103.109 236.908C103.051 235.677 102.597 234.493 101.817 233.364L100.172 234.5ZM101.111 236.956C101.111 236.924 101.117 236.879 101.137 236.832C101.157 236.787 101.18 236.761 101.187 236.753L102.602 238.167C102.921 237.848 103.111 237.431 103.111 236.956H101.111ZM101.126 236.82C101.176 236.76 101.24 236.717 101.298 236.694C101.351 236.672 101.377 236.676 101.355 236.676V238.676C101.802 238.676 102.302 238.533 102.663 238.1L101.126 236.82ZM101.355 236.676H99.4466V238.676H101.355V236.676ZM99.4466 236.676C99.3949 236.676 99.3734 236.67 99.3737 236.67C99.376 236.671 99.3969 236.677 99.4246 236.698C99.4377 236.707 99.4498 236.718 99.4602 236.729C99.4706 236.74 99.4777 236.75 99.4821 236.757C99.4908 236.771 99.4859 236.769 99.4777 236.738L97.5435 237.246C97.6487 237.646 97.8649 238.035 98.2446 238.312C98.6174 238.585 99.0469 238.676 99.4466 238.676V236.676ZM99.5005 236.851C99.3095 235.513 98.5503 234.451 97.3686 233.673L96.2686 235.343C97.0549 235.861 97.4237 236.455 97.5206 237.133L99.5005 236.851ZM97.3826 233.682C96.1952 232.871 94.7495 232.5 93.1106 232.5V234.5C94.4477 234.5 95.474 234.801 96.2546 235.334L97.3826 233.682ZM93.1106 232.5C91.3657 232.5 89.8627 232.831 88.7039 233.604L89.8133 235.268C90.5265 234.793 91.5914 234.5 93.1106 234.5V232.5ZM88.7039 233.604C87.4619 234.432 86.8546 235.684 86.8546 237.208H88.8546C88.8546 236.284 89.1833 235.688 89.8133 235.268L88.7039 233.604ZM86.8546 237.208C86.8546 238.208 87.1232 239.117 87.7286 239.857L89.2766 238.591C89.018 238.275 88.8546 237.84 88.8546 237.208H86.8546ZM87.7458 239.878C88.3297 240.554 89.1541 241.097 90.1462 241.541L90.963 239.715C90.1311 239.343 89.5875 238.95 89.2594 238.57L87.7458 239.878ZM90.1665 241.55C91.1333 241.957 92.5101 242.414 94.2741 242.921L94.8271 240.999C93.0871 240.498 91.7998 240.067 90.9427 239.706L90.1665 241.55ZM94.2894 242.925C96.2973 243.469 97.8312 244.023 98.9201 244.579L99.8291 242.797C98.566 242.153 96.8839 241.555 94.8118 240.995L94.2894 242.925ZM98.9347 244.586C99.9865 245.101 100.707 245.724 101.164 246.428L102.842 245.34C102.146 244.268 101.115 243.427 99.8145 242.79L98.9347 244.586ZM101.171 246.439C101.609 247.096 101.867 247.992 101.867 249.196H103.867C103.867 247.712 103.548 246.4 102.835 245.329L101.171 246.439ZM101.867 249.196C101.867 251.125 101.142 252.572 99.6818 253.647L100.867 255.257C102.863 253.788 103.867 251.731 103.867 249.196H101.867ZM99.6818 253.647C98.1783 254.753 96.0817 255.36 93.2906 255.36V257.36C96.3555 257.36 98.9149 256.695 100.867 255.257L99.6818 253.647ZM107.369 255.784L106.61 256.435L106.66 256.493L106.718 256.543L107.369 255.784ZM107.369 230.692L108.076 231.399L108.076 231.399L107.369 230.692ZM110.357 230.692L109.598 231.343L109.648 231.401L109.706 231.451L110.357 230.692ZM110.609 239.656H109.609V242.553L111.396 240.273L110.609 239.656ZM113.057 237.64L113.495 238.539L113.504 238.534L113.513 238.53L113.057 237.64ZM121.913 239.152L121.153 239.802L121.159 239.808L121.164 239.815L121.913 239.152ZM123.605 255.784L122.898 255.077H122.898L123.605 255.784ZM120.617 255.784L119.858 256.435L119.908 256.493L119.966 256.543L120.617 255.784ZM119.141 241.24L118.387 241.897L118.392 241.903L118.397 241.908L119.141 241.24ZM111.941 241.276L111.216 240.587L111.216 240.588L111.941 241.276ZM110.357 255.784L109.65 255.077L110.357 255.784ZM107.981 255C107.962 255 107.965 254.997 107.981 255.003C107.988 255.006 107.996 255.009 108.004 255.014C108.012 255.018 108.017 255.022 108.02 255.025L106.718 256.543C107.083 256.856 107.524 257 107.981 257V255ZM108.128 255.133C108.131 255.136 108.135 255.141 108.139 255.149C108.144 255.157 108.148 255.165 108.15 255.172C108.156 255.188 108.153 255.191 108.153 255.172H106.153C106.153 255.629 106.297 256.07 106.61 256.435L108.128 255.133ZM108.153 255.172V231.268H106.153V255.172H108.153ZM108.153 231.268C108.153 231.248 108.156 231.261 108.143 231.295C108.13 231.332 108.106 231.369 108.076 231.399L106.662 229.985C106.297 230.35 106.153 230.814 106.153 231.268H108.153ZM108.076 231.399C108.074 231.401 108.058 231.416 108.029 231.428C108 231.44 107.98 231.44 107.981 231.44V229.44C107.479 229.44 107.02 229.627 106.662 229.985L108.076 231.399ZM107.981 231.44H109.781V229.44H107.981V231.44ZM109.781 231.44C109.783 231.44 109.752 231.44 109.704 231.419C109.655 231.397 109.618 231.367 109.598 231.343L111.116 230.041C110.765 229.631 110.285 229.44 109.781 229.44V231.44ZM109.706 231.451C109.683 231.431 109.652 231.394 109.63 231.345C109.609 231.297 109.609 231.266 109.609 231.268H111.609C111.609 230.764 111.418 230.284 111.008 229.933L109.706 231.451ZM109.609 231.268V239.656H111.609V231.268H109.609ZM111.396 240.273C112.007 239.494 112.706 238.923 113.495 238.539L112.619 236.741C111.536 237.269 110.604 238.042 109.822 239.039L111.396 240.273ZM113.513 238.53C114.27 238.142 115.267 237.92 116.549 237.92V235.92C115.048 235.92 113.716 236.178 112.601 236.75L113.513 238.53ZM116.549 237.92C118.618 237.92 120.105 238.576 121.153 239.802L122.673 238.502C121.177 236.752 119.088 235.92 116.549 235.92V237.92ZM121.164 239.815C122.261 241.053 122.857 242.752 122.857 245.02H124.857C124.857 242.392 124.158 240.179 122.662 238.489L121.164 239.815ZM122.857 245.02V255.172H124.857V245.02H122.857ZM122.857 255.172C122.857 255.173 122.857 255.153 122.869 255.124C122.881 255.095 122.896 255.079 122.898 255.077L124.312 256.491C124.67 256.133 124.857 255.674 124.857 255.172H122.857ZM122.898 255.077C122.928 255.047 122.965 255.023 123.002 255.01C123.036 254.997 123.049 255 123.029 255V257C123.483 257 123.947 256.856 124.312 256.491L122.898 255.077ZM123.029 255H121.229V257H123.029V255ZM121.229 255C121.21 255 121.213 254.997 121.229 255.003C121.236 255.006 121.244 255.009 121.252 255.014C121.26 255.018 121.265 255.022 121.268 255.025L119.966 256.543C120.331 256.856 120.772 257 121.229 257V255ZM121.376 255.133C121.379 255.136 121.383 255.141 121.387 255.149C121.392 255.157 121.396 255.165 121.398 255.172C121.404 255.188 121.401 255.191 121.401 255.172H119.401C119.401 255.629 119.545 256.07 119.858 256.435L121.376 255.133ZM121.401 255.172V245.2H119.401V255.172H121.401ZM121.401 245.2C121.401 243.338 120.941 241.748 119.885 240.572L118.397 241.908C119.021 242.604 119.401 243.654 119.401 245.2H121.401ZM119.895 240.583C118.842 239.375 117.346 238.836 115.577 238.836V240.836C116.928 240.836 117.808 241.233 118.387 241.897L119.895 240.583ZM115.577 238.836C113.834 238.836 112.344 239.4 111.216 240.587L112.666 241.965C113.362 241.232 114.297 240.836 115.577 240.836V238.836ZM111.216 240.588C110.103 241.76 109.609 243.344 109.609 245.2H111.609C111.609 243.696 112.003 242.664 112.667 241.964L111.216 240.588ZM109.609 245.2V255.172H111.609V245.2H109.609ZM109.609 255.172C109.609 255.173 109.609 255.153 109.621 255.124C109.633 255.095 109.648 255.079 109.65 255.077L111.064 256.491C111.422 256.133 111.609 255.674 111.609 255.172H109.609ZM109.65 255.077C109.68 255.047 109.717 255.023 109.754 255.01C109.788 254.997 109.801 255 109.781 255V257C110.235 257 110.699 256.856 111.064 256.491L109.65 255.077ZM109.781 255H107.981V257H109.781V255ZM130.567 254.128L129.848 254.823L129.854 254.829L130.567 254.128ZM128.263 248.188L127.263 248.211L127.263 248.219L127.263 248.227L128.263 248.188ZM128.227 246.64L127.227 246.617L127.226 246.64L127.227 246.663L128.227 246.64ZM128.263 245.092L127.263 245.053L127.263 245.061L127.263 245.069L128.263 245.092ZM130.603 239.188L131.315 239.889L131.321 239.884L130.603 239.188ZM142.843 239.188L142.124 239.884L142.13 239.889L142.843 239.188ZM145.183 245.092L144.183 245.131L144.184 245.157L144.187 245.183L145.183 245.092ZM145.183 248.188L144.187 248.097L144.184 248.123L144.183 248.149L145.183 248.188ZM142.843 254.128L142.13 253.427L142.124 253.433L142.843 254.128ZM140.287 252.148L139.552 251.469L139.543 251.479L140.287 252.148ZM141.727 248.008L140.732 247.908L140.729 247.938L140.727 247.968L141.727 248.008ZM141.727 245.272L140.727 245.312L140.729 245.342L140.732 245.372L141.727 245.272ZM140.287 241.132L139.543 241.801L139.553 241.811L140.287 241.132ZM131.719 245.272L130.719 245.245L130.719 245.246L131.719 245.272ZM131.683 246.64L130.683 246.614L130.682 246.64L130.683 246.666L131.683 246.64ZM131.719 248.008L130.719 248.034L130.719 248.035L131.719 248.008ZM133.123 252.148L133.857 251.469L133.123 252.148ZM136.723 255.36C134.276 255.36 132.509 254.676 131.279 253.427L129.854 254.829C131.552 256.556 133.889 257.36 136.723 257.36V255.36ZM131.285 253.433C130.049 252.155 129.35 250.426 129.262 248.149L127.263 248.227C127.367 250.894 128.205 253.125 129.848 254.823L131.285 253.433ZM129.262 248.165L129.226 246.617L127.227 246.663L127.263 248.211L129.262 248.165ZM129.226 246.663L129.262 245.115L127.263 245.069L127.227 246.617L129.226 246.663ZM129.262 245.131C129.35 242.886 130.056 241.17 131.315 239.889L129.89 238.487C128.222 240.182 127.367 242.402 127.263 245.053L129.262 245.131ZM131.321 239.884C132.553 238.611 134.307 237.92 136.723 237.92V235.92C133.906 235.92 131.58 236.741 129.884 238.492L131.321 239.884ZM136.723 237.92C139.138 237.92 140.892 238.611 142.124 239.884L143.561 238.492C141.865 236.741 139.539 235.92 136.723 235.92V237.92ZM142.13 239.889C143.39 241.17 144.095 242.886 144.183 245.131L146.182 245.053C146.078 242.402 145.224 240.182 143.555 238.487L142.13 239.889ZM144.187 245.183C144.206 245.394 144.219 245.866 144.219 246.64H146.219C146.219 245.878 146.207 245.318 146.179 245.001L144.187 245.183ZM144.219 246.64C144.219 247.414 144.206 247.886 144.187 248.097L146.179 248.279C146.207 247.962 146.219 247.402 146.219 246.64H144.219ZM144.183 248.149C144.095 250.421 143.388 252.148 142.13 253.427L143.555 254.829C145.226 253.132 146.078 250.899 146.182 248.227L144.183 248.149ZM142.124 253.433C140.921 254.676 139.17 255.36 136.723 255.36V257.36C139.555 257.36 141.884 256.556 143.561 254.823L142.124 253.433ZM136.723 254.588C138.465 254.588 139.943 254.024 141.03 252.817L139.543 251.479C138.902 252.192 138.004 252.588 136.723 252.588V254.588ZM141.021 252.827C142.122 251.636 142.648 249.996 142.726 248.048L140.727 247.968C140.661 249.62 140.227 250.74 139.553 251.469L141.021 252.827ZM142.722 248.108C142.751 247.811 142.763 247.306 142.763 246.64H140.763C140.763 247.318 140.75 247.725 140.732 247.908L142.722 248.108ZM142.763 246.64C142.763 245.974 142.751 245.469 142.722 245.172L140.732 245.372C140.75 245.555 140.763 245.962 140.763 246.64H142.763ZM142.726 245.232C142.648 243.284 142.122 241.644 141.021 240.453L139.553 241.811C140.227 242.54 140.661 243.66 140.727 245.312L142.726 245.232ZM141.03 240.463C139.943 239.256 138.465 238.692 136.723 238.692V240.692C138.004 240.692 138.902 241.088 139.543 241.801L141.03 240.463ZM136.723 238.692C134.98 238.692 133.496 239.256 132.389 240.453L133.857 241.811C134.525 241.088 135.442 240.692 136.723 240.692V238.692ZM132.389 240.453C131.283 241.648 130.771 243.294 130.719 245.245L132.718 245.299C132.762 243.65 133.186 242.536 133.857 241.811L132.389 240.453ZM130.719 245.246L130.683 246.614L132.682 246.666L132.718 245.298L130.719 245.246ZM130.683 246.666L130.719 248.034L132.718 247.982L132.682 246.614L130.683 246.666ZM130.719 248.035C130.771 249.986 131.283 251.632 132.389 252.827L133.857 251.469C133.186 250.744 132.762 249.63 132.718 247.981L130.719 248.035ZM132.389 252.827C133.496 254.024 134.98 254.588 136.723 254.588V252.588C135.442 252.588 134.525 252.192 133.857 251.469L132.389 252.827ZM149.979 262.588L149.271 263.295V263.295L149.979 262.588ZM149.979 237.532L150.686 238.239V238.239L149.979 237.532ZM152.823 237.532L152.063 238.183L152.113 238.241L152.172 238.291L152.823 237.532ZM153.075 239.692H152.075V242.767L153.883 240.28L153.075 239.692ZM164.631 239.296L163.845 239.915L163.851 239.922L164.631 239.296ZM166.683 245.416L165.683 245.454L165.684 245.481L165.687 245.507L166.683 245.416ZM166.683 247.864L165.687 247.773L165.684 247.799L165.683 247.825L166.683 247.864ZM164.631 253.984L165.41 254.61L165.415 254.604L164.631 253.984ZM153.146 253.66L153.938 253.048L152.146 250.732V253.66H153.146ZM152.931 262.588L152.223 261.881L152.196 261.908L152.171 261.937L152.931 262.588ZM161.931 251.86L161.131 251.26L161.126 251.266L161.122 251.272L161.931 251.86ZM163.227 247.684L162.231 247.584L162.229 247.613L162.227 247.642L163.227 247.684ZM154.479 241.492L153.683 240.886L153.681 240.889L154.479 241.492ZM153.146 245.38L152.148 245.332L152.147 245.343L152.147 245.354L153.146 245.38ZM153.111 246.748L152.111 246.722L152.11 246.748L152.111 246.774L153.111 246.748ZM153.146 248.152L152.147 248.178L152.147 248.186L153.146 248.152ZM154.515 251.86L155.288 251.227L154.515 251.86ZM150.59 261.84C150.59 261.84 150.609 261.84 150.638 261.852C150.667 261.864 150.684 261.879 150.686 261.881L149.271 263.295C149.629 263.653 150.088 263.84 150.59 263.84V261.84ZM150.686 261.881C150.715 261.911 150.739 261.948 150.753 261.985C150.765 262.019 150.762 262.032 150.762 262.012H148.762C148.762 262.466 148.907 262.93 149.271 263.295L150.686 261.881ZM150.762 262.012V238.108H148.762V262.012H150.762ZM150.762 238.108C150.762 238.088 150.765 238.101 150.753 238.135C150.739 238.172 150.715 238.209 150.686 238.239L149.271 236.825C148.907 237.19 148.762 237.654 148.762 238.108H150.762ZM150.686 238.239C150.684 238.241 150.667 238.256 150.638 238.268C150.609 238.28 150.59 238.28 150.59 238.28V236.28C150.088 236.28 149.629 236.467 149.271 236.825L150.686 238.239ZM150.59 238.28H152.246V236.28H150.59V238.28ZM152.246 238.28C152.248 238.28 152.217 238.28 152.17 238.259C152.12 238.237 152.084 238.207 152.063 238.183L153.582 236.881C153.23 236.471 152.75 236.28 152.246 236.28V238.28ZM152.172 238.291C152.148 238.271 152.117 238.234 152.095 238.185C152.075 238.137 152.075 238.106 152.075 238.108H154.075C154.075 237.604 153.883 237.124 153.473 236.773L152.172 238.291ZM152.075 238.108V239.692H154.075V238.108H152.075ZM153.883 240.28C155.012 238.728 156.657 237.92 158.979 237.92V235.92C156.116 235.92 153.825 236.96 152.266 239.104L153.883 240.28ZM158.979 237.92C161.276 237.92 162.833 238.631 163.845 239.915L165.416 238.677C163.932 236.793 161.721 235.92 158.979 235.92V237.92ZM163.851 239.922C164.96 241.304 165.594 243.123 165.683 245.454L167.682 245.378C167.579 242.717 166.845 240.456 165.41 238.67L163.851 239.922ZM165.687 245.507C165.706 245.723 165.718 246.093 165.718 246.64H167.718C167.718 246.083 167.707 245.637 167.678 245.325L165.687 245.507ZM165.718 246.64C165.718 247.187 165.706 247.557 165.687 247.773L167.678 247.955C167.707 247.643 167.718 247.197 167.718 246.64H165.718ZM165.683 247.825C165.594 250.13 164.961 251.954 163.846 253.364L165.415 254.604C166.844 252.798 167.579 250.542 167.682 247.903L165.683 247.825ZM163.851 253.358C162.812 254.652 161.248 255.36 158.979 255.36V257.36C161.701 257.36 163.905 256.484 165.41 254.61L163.851 253.358ZM158.979 255.36C156.758 255.36 155.12 254.577 153.938 253.048L152.355 254.272C153.957 256.343 156.207 257.36 158.979 257.36V255.36ZM152.146 253.66V262.012H154.146V253.66H152.146ZM152.146 262.012C152.146 262.032 152.144 262.019 152.156 261.985C152.17 261.948 152.194 261.911 152.223 261.881L153.638 263.295C154.002 262.93 154.146 262.466 154.146 262.012H152.146ZM152.171 261.937C152.192 261.913 152.228 261.883 152.278 261.861C152.325 261.84 152.356 261.84 152.354 261.84V263.84C152.858 263.84 153.338 263.649 153.69 263.239L152.171 261.937ZM152.354 261.84H150.59V263.84H152.354V261.84ZM158.223 254.444C160.139 254.444 161.728 253.839 162.739 252.448L161.122 251.272C160.597 251.993 159.714 252.444 158.223 252.444V254.444ZM162.73 252.46C163.676 251.199 164.148 249.594 164.226 247.726L162.227 247.642C162.161 249.23 161.769 250.409 161.131 251.26L162.73 252.46ZM164.222 247.784C164.251 247.493 164.262 247.106 164.262 246.64H162.262C162.262 247.086 162.25 247.395 162.231 247.584L164.222 247.784ZM164.262 246.64C164.262 244.278 163.83 242.324 162.806 240.942C161.74 239.503 160.151 238.836 158.223 238.836V240.836C159.654 240.836 160.585 241.303 161.199 242.132C161.855 243.018 162.262 244.466 162.262 246.64H164.262ZM158.223 238.836C156.322 238.836 154.749 239.484 153.683 240.886L155.274 242.098C155.888 241.292 156.811 240.836 158.223 240.836V238.836ZM153.681 240.889C152.729 242.148 152.228 243.644 152.148 245.332L154.145 245.428C154.209 244.092 154.596 242.996 155.276 242.095L153.681 240.889ZM152.147 245.354L152.111 246.722L154.11 246.774L154.146 245.406L152.147 245.354ZM152.111 246.774L152.147 248.178L154.146 248.126L154.11 246.722L152.111 246.774ZM152.147 248.186C152.202 249.812 152.732 251.261 153.741 252.493L155.288 251.227C154.569 250.347 154.187 249.324 154.146 248.118L152.147 248.186ZM153.741 252.493C154.829 253.824 156.374 254.444 158.223 254.444V252.444C156.855 252.444 155.928 252.008 155.288 251.227L153.741 252.493ZM171.1 233.572L170.341 234.223L170.391 234.281L170.449 234.331L171.1 233.572ZM171.1 230.404L170.393 229.697L170.366 229.724L170.341 229.753L171.1 230.404ZM174.592 230.404L173.885 231.111V231.111L174.592 230.404ZM174.592 233.572L175.243 234.331L175.272 234.306L175.299 234.279L174.592 233.572ZM171.388 255.784L170.629 256.435L170.679 256.493L170.737 256.543L171.388 255.784ZM171.388 237.532L172.095 238.239V238.239L171.388 237.532ZM174.304 237.532L173.545 238.183L173.595 238.241L173.653 238.291L174.304 237.532ZM174.304 255.784L175.011 256.491L174.304 255.784ZM171.712 232.788C171.693 232.788 171.696 232.785 171.712 232.791C171.719 232.794 171.727 232.797 171.735 232.802C171.742 232.806 171.748 232.81 171.751 232.813L170.449 234.331C170.814 234.644 171.255 234.788 171.712 234.788V232.788ZM171.859 232.921C171.862 232.924 171.866 232.929 171.87 232.937C171.875 232.945 171.878 232.953 171.881 232.96C171.886 232.976 171.884 232.979 171.884 232.96H169.884C169.884 233.417 170.028 233.858 170.341 234.223L171.859 232.921ZM171.884 232.96V231.016H169.884V232.96H171.884ZM171.884 231.016C171.884 230.997 171.886 231 171.881 231.016C171.878 231.023 171.875 231.031 171.87 231.039C171.866 231.047 171.862 231.052 171.859 231.055L170.341 229.753C170.028 230.118 169.884 230.559 169.884 231.016H171.884ZM171.807 231.111C171.805 231.113 171.789 231.128 171.76 231.14C171.731 231.152 171.711 231.152 171.712 231.152V229.152C171.21 229.152 170.75 229.339 170.393 229.697L171.807 231.111ZM171.712 231.152H173.98V229.152H171.712V231.152ZM173.98 231.152C173.981 231.152 173.961 231.152 173.932 231.14C173.903 231.128 173.887 231.113 173.885 231.111L175.299 229.697C174.941 229.339 174.482 229.152 173.98 229.152V231.152ZM173.885 231.111C173.883 231.109 173.868 231.093 173.856 231.064C173.844 231.035 173.844 231.015 173.844 231.016H175.844C175.844 230.514 175.657 230.055 175.299 229.697L173.885 231.111ZM173.844 231.016V232.96H175.844V231.016H173.844ZM173.844 232.96C173.844 232.961 173.844 232.941 173.856 232.912C173.868 232.883 173.883 232.867 173.885 232.865L175.299 234.279C175.657 233.921 175.844 233.462 175.844 232.96H173.844ZM173.941 232.813C173.944 232.81 173.949 232.806 173.957 232.802C173.965 232.797 173.973 232.794 173.98 232.791C173.996 232.785 173.999 232.788 173.98 232.788V234.788C174.437 234.788 174.877 234.644 175.243 234.331L173.941 232.813ZM173.98 232.788H171.712V234.788H173.98V232.788ZM172 255C171.981 255 171.984 254.997 172 255.003C172.007 255.006 172.015 255.009 172.023 255.014C172.03 255.018 172.036 255.022 172.039 255.025L170.737 256.543C171.102 256.856 171.543 257 172 257V255ZM172.147 255.133C172.15 255.136 172.154 255.141 172.158 255.149C172.163 255.157 172.166 255.165 172.169 255.172C172.174 255.188 172.172 255.191 172.172 255.172H170.172C170.172 255.629 170.316 256.07 170.629 256.435L172.147 255.133ZM172.172 255.172V238.108H170.172V255.172H172.172ZM172.172 238.108C172.172 238.088 172.175 238.101 172.162 238.135C172.148 238.172 172.125 238.209 172.095 238.239L170.681 236.825C170.316 237.19 170.172 237.654 170.172 238.108H172.172ZM172.095 238.239C172.093 238.241 172.077 238.256 172.048 238.268C172.019 238.28 171.999 238.28 172 238.28V236.28C171.498 236.28 171.038 236.467 170.681 236.825L172.095 238.239ZM172 238.28H173.728V236.28H172V238.28ZM173.728 238.28C173.73 238.28 173.698 238.28 173.651 238.259C173.601 238.237 173.565 238.207 173.545 238.183L175.063 236.881C174.712 236.471 174.232 236.28 173.728 236.28V238.28ZM173.653 238.291C173.629 238.271 173.598 238.234 173.577 238.185C173.556 238.137 173.556 238.106 173.556 238.108H175.556C175.556 237.604 175.365 237.124 174.955 236.773L173.653 238.291ZM173.556 238.108V255.172H175.556V238.108H173.556ZM173.556 255.172C173.556 255.173 173.556 255.153 173.568 255.124C173.58 255.095 173.595 255.079 173.597 255.077L175.011 256.491C175.369 256.133 175.556 255.674 175.556 255.172H173.556ZM173.597 255.077C173.626 255.047 173.664 255.023 173.701 255.01C173.734 254.997 173.748 255 173.728 255V257C174.182 257 174.646 256.856 175.011 256.491L173.597 255.077ZM173.728 255H172V257H173.728V255ZM181.979 255.784L181.219 256.435L181.269 256.493L181.328 256.543L181.979 255.784ZM181.763 240.16H182.763V239.16H181.763V240.16ZM178.091 239.944L177.331 240.595L177.381 240.653L177.44 240.703L178.091 239.944ZM178.091 237.532L178.798 238.239V238.239L178.091 237.532ZM181.763 237.28V238.28H182.763V237.28H181.763ZM190.691 229.612L189.931 230.263L189.981 230.321L190.04 230.371L190.691 229.612ZM190.691 232.024L191.398 232.731L191.398 232.731L190.691 232.024ZM185.759 233.104L186.546 233.72L186.552 233.712L186.559 233.704L185.759 233.104ZM185.111 237.28H184.111V238.28H185.111V237.28ZM190.331 237.532L189.571 238.183L189.621 238.241L189.68 238.291L190.331 237.532ZM190.331 239.944L191.038 240.651V240.651L190.331 239.944ZM185.111 240.16V239.16H184.111V240.16H185.111ZM184.859 255.784L184.151 255.077L184.859 255.784ZM182.591 255C182.572 255 182.574 254.997 182.59 255.003C182.598 255.006 182.606 255.009 182.613 255.014C182.621 255.018 182.626 255.022 182.629 255.025L181.328 256.543C181.693 256.856 182.134 257 182.591 257V255ZM182.738 255.133C182.74 255.136 182.744 255.141 182.749 255.149C182.753 255.157 182.757 255.165 182.76 255.172C182.765 255.188 182.763 255.191 182.763 255.172H180.763C180.763 255.629 180.906 256.07 181.219 256.435L182.738 255.133ZM182.763 255.172V240.16H180.763V255.172H182.763ZM181.763 239.16H178.703V241.16H181.763V239.16ZM178.703 239.16C178.684 239.16 178.686 239.157 178.702 239.163C178.71 239.166 178.718 239.169 178.725 239.174C178.733 239.178 178.738 239.182 178.741 239.185L177.44 240.703C177.805 241.016 178.246 241.16 178.703 241.16V239.16ZM178.85 239.293C178.852 239.296 178.856 239.301 178.861 239.309C178.865 239.317 178.869 239.325 178.872 239.332C178.877 239.348 178.875 239.351 178.875 239.332H176.875C176.875 239.789 177.018 240.23 177.331 240.595L178.85 239.293ZM178.875 239.332V238.108H176.875V239.332H178.875ZM178.875 238.108C178.875 238.088 178.878 238.101 178.865 238.135C178.851 238.172 178.827 238.209 178.798 238.239L177.383 236.825C177.019 237.19 176.875 237.654 176.875 238.108H178.875ZM178.798 238.239C178.796 238.241 178.78 238.256 178.75 238.268C178.721 238.28 178.702 238.28 178.703 238.28V236.28C178.2 236.28 177.741 236.467 177.383 236.825L178.798 238.239ZM178.703 238.28H181.763V236.28H178.703V238.28ZM182.763 237.28V235.48H180.763V237.28H182.763ZM182.763 235.48C182.763 233.597 183.238 232.368 184.014 231.601C184.791 230.832 186.042 230.36 187.955 230.36V228.36C185.739 228.36 183.894 228.908 182.608 230.179C181.319 231.452 180.763 233.283 180.763 235.48H182.763ZM187.955 230.36H190.115V228.36H187.955V230.36ZM190.115 230.36C190.117 230.36 190.085 230.36 190.038 230.339C189.988 230.317 189.952 230.287 189.931 230.263L191.45 228.961C191.098 228.551 190.619 228.36 190.115 228.36V230.36ZM190.04 230.371C190.016 230.351 189.985 230.314 189.963 230.265C189.943 230.217 189.943 230.186 189.943 230.188H191.943C191.943 229.684 191.751 229.204 191.341 228.853L190.04 230.371ZM189.943 230.188V231.412H191.943V230.188H189.943ZM189.943 231.412C189.943 231.413 189.943 231.393 189.955 231.364C189.967 231.335 189.981 231.319 189.983 231.317L191.398 232.731C191.755 232.373 191.943 231.914 191.943 231.412H189.943ZM189.983 231.317C190.013 231.287 190.051 231.263 190.087 231.25C190.121 231.237 190.135 231.24 190.115 231.24V233.24C190.569 233.24 191.033 233.096 191.398 232.731L189.983 231.317ZM190.115 231.24H188.027V233.24H190.115V231.24ZM188.027 231.24C186.795 231.24 185.66 231.569 184.959 232.504L186.559 233.704C186.722 233.487 187.098 233.24 188.027 233.24V231.24ZM184.971 232.488C184.338 233.297 184.111 234.417 184.111 235.66H186.111C186.111 234.599 186.316 234.015 186.546 233.72L184.971 232.488ZM184.111 235.66V237.28H186.111V235.66H184.111ZM185.111 238.28H189.755V236.28H185.111V238.28ZM189.755 238.28C189.757 238.28 189.725 238.28 189.678 238.259C189.628 238.237 189.592 238.207 189.571 238.183L191.09 236.881C190.738 236.471 190.259 236.28 189.755 236.28V238.28ZM189.68 238.291C189.656 238.271 189.625 238.234 189.603 238.185C189.583 238.137 189.583 238.106 189.583 238.108H191.583C191.583 237.604 191.391 237.124 190.981 236.773L189.68 238.291ZM189.583 238.108V239.332H191.583V238.108H189.583ZM189.583 239.332C189.583 239.333 189.583 239.313 189.595 239.284C189.607 239.255 189.621 239.239 189.623 239.237L191.038 240.651C191.395 240.293 191.583 239.834 191.583 239.332H189.583ZM189.623 239.237C189.653 239.207 189.691 239.183 189.727 239.17C189.761 239.157 189.775 239.16 189.755 239.16V241.16C190.209 241.16 190.673 241.016 191.038 240.651L189.623 239.237ZM189.755 239.16H185.111V241.16H189.755V239.16ZM184.111 240.16V255.172H186.111V240.16H184.111ZM184.111 255.172C184.111 255.173 184.111 255.153 184.123 255.124C184.135 255.095 184.149 255.079 184.151 255.077L185.566 256.491C185.923 256.133 186.111 255.674 186.111 255.172H184.111ZM184.151 255.077C184.181 255.047 184.219 255.023 184.255 255.01C184.289 254.997 184.303 255 184.283 255V257C184.737 257 185.201 256.856 185.566 256.491L184.151 255.077ZM184.283 255H182.591V257H184.283V255ZM196.514 262.624L195.807 263.331H195.807L196.514 262.624ZM196.478 261.472L197.388 261.886L197.394 261.873L197.4 261.86L196.478 261.472ZM199.25 254.884L200.172 255.272L200.336 254.883L200.171 254.494L199.25 254.884ZM192.374 238.648L191.441 239.007L191.447 239.023L191.453 239.038L192.374 238.648ZM192.41 237.496L193.117 238.203V238.203L192.41 237.496ZM195.578 237.892L196.501 237.507L196.492 237.486L196.483 237.466L195.578 237.892ZM201.05 250.996L200.127 251.381L201.038 253.562L201.969 251.39L201.05 250.996ZM206.666 237.892L205.761 237.466L205.754 237.482L205.747 237.498L206.666 237.892ZM209.834 238.648L210.752 239.046L210.769 239.006L210.783 238.964L209.834 238.648ZM199.61 262.228L200.515 262.654L200.521 262.64L200.528 262.626L199.61 262.228ZM197.018 261.84C197.051 261.84 197.095 261.847 197.142 261.867C197.188 261.886 197.214 261.909 197.221 261.917L195.807 263.331C196.126 263.65 196.544 263.84 197.018 263.84V261.84ZM197.221 261.917C197.229 261.925 197.252 261.951 197.271 261.996C197.291 262.043 197.298 262.088 197.298 262.12H195.298C195.298 262.595 195.488 263.012 195.807 263.331L197.221 261.917ZM197.298 262.12C197.298 262.151 197.293 262.148 197.307 262.1C197.319 262.054 197.344 261.983 197.388 261.886L195.568 261.058C195.426 261.371 195.298 261.741 195.298 262.12H197.298ZM197.4 261.86L200.172 255.272L198.328 254.496L195.556 261.084L197.4 261.86ZM200.171 254.494L193.295 238.258L191.453 239.038L198.329 255.274L200.171 254.494ZM193.307 238.289C193.252 238.146 193.218 238.045 193.198 237.979C193.189 237.946 193.186 237.932 193.186 237.932C193.186 237.933 193.188 237.941 193.19 237.956C193.191 237.97 193.194 237.998 193.194 238.036H191.194C191.194 238.239 191.247 238.433 191.28 238.543C191.32 238.681 191.376 238.838 191.441 239.007L193.307 238.289ZM193.194 238.036C193.194 238.041 193.193 238.07 193.177 238.11C193.16 238.152 193.136 238.184 193.117 238.203L191.703 236.789C191.359 237.133 191.194 237.573 191.194 238.036H193.194ZM193.117 238.203C193.098 238.222 193.067 238.246 193.025 238.262C192.984 238.279 192.955 238.28 192.95 238.28V236.28C192.487 236.28 192.047 236.445 191.703 236.789L193.117 238.203ZM192.95 238.28H194.714V236.28H192.95V238.28ZM194.714 238.28C194.721 238.28 194.712 238.281 194.694 238.275C194.674 238.269 194.655 238.26 194.64 238.249C194.609 238.227 194.631 238.227 194.673 238.318L196.483 237.466C196.333 237.149 196.115 236.843 195.796 236.617C195.468 236.385 195.094 236.28 194.714 236.28V238.28ZM194.655 238.277L200.127 251.381L201.973 250.611L196.501 237.507L194.655 238.277ZM201.969 251.39L207.585 238.286L205.747 237.498L200.131 250.602L201.969 251.39ZM207.571 238.318C207.59 238.277 207.605 238.257 207.61 238.251C207.614 238.245 207.611 238.251 207.597 238.26C207.591 238.264 207.584 238.268 207.576 238.272C207.569 238.275 207.562 238.278 207.557 238.279C207.547 238.282 207.548 238.28 207.566 238.28V236.28C207.187 236.28 206.809 236.378 206.473 236.606C206.143 236.83 205.915 237.139 205.761 237.466L207.571 238.318ZM207.566 238.28H209.258V236.28H207.566V238.28ZM209.258 238.28C209.253 238.28 209.225 238.279 209.184 238.262C209.142 238.246 209.11 238.222 209.091 238.203L210.505 236.789C210.161 236.445 209.721 236.28 209.258 236.28V238.28ZM209.091 238.203C209.083 238.195 209.061 238.169 209.041 238.124C209.021 238.077 209.014 238.032 209.014 238H211.014C211.014 237.525 210.824 237.108 210.505 236.789L209.091 238.203ZM209.014 238C209.014 237.946 209.019 237.908 209.021 237.896C209.023 237.881 209.025 237.874 209.024 237.877C209.023 237.884 209.017 237.906 209.006 237.948C208.982 238.033 208.943 238.159 208.885 238.332L210.783 238.964C210.845 238.777 210.896 238.615 210.933 238.484C210.955 238.402 211.014 238.196 211.014 238H209.014ZM208.917 238.25L198.693 261.83L200.528 262.626L210.752 239.046L208.917 238.25ZM198.705 261.802C198.686 261.843 198.672 261.863 198.666 261.869C198.662 261.875 198.665 261.869 198.679 261.86C198.685 261.856 198.692 261.852 198.7 261.848C198.707 261.845 198.714 261.842 198.719 261.841C198.73 261.838 198.728 261.84 198.71 261.84V263.84C199.089 263.84 199.467 263.742 199.803 263.514C200.133 263.29 200.361 262.981 200.515 262.654L198.705 261.802ZM198.71 261.84H197.018V263.84H198.71V261.84Z" fill="black"/>
</g>
<defs>
<filter id="filter0_d" x="78.5706" y="228.36" width="136.444" height="43.48" filterUnits="userSpaceOnUse" color-interpolation-filters="sRGB">
<feFlood flood-opacity="0" result="BackgroundImageFix"/>
<feColorMatrix in="SourceAlpha" type="matrix" values="0 0 0 0 0 0 0 0 0 0 0 0 0 0 0 0 0 0 127 0"/>
<feOffset dy="4"/>
<feGaussianBlur stdDeviation="2"/>
<feColorMatrix type="matrix" values="0 0 0 0 0 0 0 0 0 0 0 0 0 0 0 0 0 0 0.25 0"/>
<feBlend mode="normal" in2="BackgroundImageFix" result="effect1_dropShadow"/>
<feBlend mode="normal" in="SourceGraphic" in2="effect1_dropShadow" result="shape"/>
</filter>
</defs>
</svg>
